<svg width="32" height="32" viewBox="0 0 32 32" fill="none" xmlns="http://www.w3.org/2000/svg">
  <rect width="32" height="32" rx="6" fill="#18181B"/>
  <path d="M6.5 7L12.5 7.01C13.1 7.12 13.7 7.36 14.1 7.8C16.5 12.1 18.7 16.5 20.9 20.9L20.8 21.6C19.9 23.1 19.1 24.8 18.2 26.3C18 26.6 17.9 27 17.5 26.8L6.4 8C6.3 7.9 6.2 7.5 6.5 7Z" fill="white"/>
  <path d="M22.5 7C24.1 6.8 26.1 7.1 27.7 7C27.9 7 28 7.1 28 7.3L21.5 19.3C21.2 19.5 21 19.4 20.9 19.1C20.1 17.5 19.2 15.9 18.4 14.3C18.1 13.8 18 13.5 18.2 13L20.6 8.8C20.9 8.3 21.6 7.7 22.5 7Z" fill="white"/>
</svg>
