<svg width="704" height="120" viewBox="0 0 704 120" fill="none" xmlns="http://www.w3.org/2000/svg">
<path d="M181.171 100L152.154 19.5219H169.949L191.373 80.6173L212.796 19.5219H230.591L201.461 100H181.171ZM231.512 100V39.2447H248.515V100H231.512ZM231.172 31.7636V18.1617H248.742V31.7636H231.172ZM291.086 101.36C286.855 101.36 283.152 100.453 279.978 98.6398C276.88 96.8262 274.462 94.2947 272.724 91.0454L272.384 100H256.175V19.5219H273.177V47.8593C274.764 45.0633 277.107 42.7208 280.205 40.8316C283.303 38.8669 286.93 37.8845 291.086 37.8845C296.225 37.8845 300.683 39.2069 304.462 41.8518C308.24 44.421 311.149 48.086 313.19 52.8466C315.305 57.6073 316.363 63.1992 316.363 69.6224C316.363 76.0455 315.305 81.6374 313.19 86.3981C311.149 91.1587 308.24 94.8615 304.462 97.5063C300.683 100.076 296.225 101.36 291.086 101.36ZM286.326 88.325C290.104 88.325 293.127 86.7003 295.394 83.451C297.736 80.1261 298.907 75.5165 298.907 69.6224C298.907 63.7282 297.774 59.1564 295.507 55.9071C293.24 52.5822 290.217 50.9197 286.439 50.9197C283.643 50.9197 281.225 51.6754 279.185 53.1867C277.22 54.6225 275.709 56.7383 274.651 59.5343C273.668 62.3302 273.177 65.6929 273.177 69.6224C273.177 73.4762 273.668 76.8012 274.651 79.5971C275.709 82.3931 277.22 84.5467 279.185 86.058C281.225 87.5693 283.605 88.325 286.326 88.325ZM348.557 101.36C342.361 101.36 336.958 100.076 332.348 97.5063C327.814 94.8615 324.263 91.1587 321.693 86.3981C319.2 81.6374 317.953 76.0455 317.953 69.6224C317.953 63.1992 319.2 57.6451 321.693 52.96C324.263 48.1993 327.814 44.4966 332.348 41.8518C336.882 39.2069 342.247 37.8845 348.444 37.8845C354.489 37.8845 359.741 39.2069 364.199 41.8518C368.658 44.4966 372.096 48.2749 374.514 53.1867C377.008 58.0985 378.255 63.9549 378.255 70.7559V74.1563H335.522C335.749 78.9926 337.033 82.582 339.376 84.9245C341.794 87.2671 344.968 88.4384 348.897 88.4384C351.769 88.4384 354.149 87.8338 356.038 86.6248C358.003 85.4157 359.401 83.5643 360.232 81.0706L377.348 82.0908C375.761 88.1361 372.398 92.859 367.26 96.2595C362.121 99.66 355.887 101.36 348.557 101.36ZM335.522 63.7282H360.799C360.572 59.2698 359.325 55.9449 357.058 53.7534C354.867 51.562 351.995 50.4663 348.444 50.4663C344.892 50.4663 341.945 51.6376 339.603 53.9801C337.336 56.2471 335.975 59.4965 335.522 63.7282ZM384.002 100V19.5219H411.772C424.845 19.5219 434.896 23.0357 441.923 30.0634C448.951 37.0155 452.465 46.9525 452.465 59.8743C452.465 72.7206 448.989 82.6198 442.037 89.5719C435.16 96.524 425.299 100 412.453 100H384.002ZM401.231 85.4913H411.772C419.556 85.4913 425.299 83.4132 429.002 79.2571C432.78 75.0253 434.669 68.5266 434.669 59.761C434.669 50.9953 432.78 44.5344 429.002 40.3782C425.299 36.1465 419.556 34.0306 411.772 34.0306H401.231V85.4913ZM487.1 101.36C480.904 101.36 475.501 100.076 470.891 97.5063C466.357 94.8615 462.806 91.1587 460.236 86.3981C457.743 81.6374 456.496 76.0455 456.496 69.6224C456.496 63.1992 457.743 57.6451 460.236 52.96C462.806 48.1993 466.357 44.4966 470.891 41.8518C475.425 39.2069 480.79 37.8845 486.987 37.8845C493.032 37.8845 498.284 39.2069 502.742 41.8518C507.201 44.4966 510.639 48.2749 513.057 53.1867C515.551 58.0985 516.798 63.9549 516.798 70.7559V74.1563H474.065C474.292 78.9926 475.576 82.582 477.919 84.9245C480.337 87.2671 483.511 88.4384 487.44 88.4384C490.312 88.4384 492.692 87.8338 494.581 86.6248C496.546 85.4157 497.944 83.5643 498.775 81.0706L515.891 82.0908C514.304 88.1361 510.941 92.859 505.803 96.2595C500.664 99.66 494.43 101.36 487.1 101.36ZM474.065 63.7282H499.342C499.115 59.2698 497.868 55.9449 495.601 53.7534C493.41 51.562 490.539 50.4663 486.987 50.4663C483.435 50.4663 480.488 51.6376 478.146 53.9801C475.879 56.2471 474.518 59.4965 474.065 63.7282ZM536.54 100L514.324 39.2447H532.119L546.515 82.8842L560.797 39.2447H578.593L556.263 100H536.54ZM603.86 100V19.5219H621.089V100H603.86ZM630.625 100V19.5219H658.396C671.469 19.5219 681.519 23.0357 688.547 30.0634C695.575 37.0155 699.088 46.9525 699.088 59.8743C699.088 72.7206 695.612 82.6198 688.66 89.5719C681.784 96.524 671.922 100 659.076 100H630.625ZM647.855 85.4913H658.396C666.179 85.4913 671.922 83.4132 675.625 79.2571C679.403 75.0253 681.293 68.5266 681.293 59.761C681.293 50.9953 679.403 44.5344 675.625 40.3782C671.922 36.1465 666.179 34.0306 658.396 34.0306H647.855V85.4913Z" fill="black"/>
<path d="M1.5675 0.394531L34.5858 0.435776C38.0437 1.14625 41.1317 2.61908 43.5 5.27869C58.223 31.2907 71.9189 57.9561 86.276 84.2023L85.9114 88.2629C80.3221 97.5855 75.7839 107.694 70.1906 116.99C69.1515 118.717 68.4823 120.909 66.0488 119.597L1.37725 3.3096C0.939522 2.57118 0.588277 0.716505 1.5675 0.394531Z" fill="black"/>
<path d="M99.6751 0.437436C109.252 -0.859774 121.169 1.2304 130.996 0.329668C131.954 0.33499 132.632 0.916406 132.57 1.90229L93.0747 74.6166C91.5965 75.9031 90.5893 75.2685 89.5875 73.8369C84.7872 64.2296 79.0302 55.0759 74.1766 45.5058C72.5881 42.3726 71.36 40.7893 72.8874 37.1465C77.1782 26.9152 85.3712 16.2794 90.0824 6.01344C92.1766 3.2261 96.2159 0.905762 99.6751 0.437436Z" fill="black"/>
</svg>
