<svg width="755" height="160" viewBox="0 0 755 160" fill="none" xmlns="http://www.w3.org/2000/svg">
<path d="M231.624 120L202.606 39.5219H220.402L241.825 100.617L263.248 39.5219H281.044L251.913 120H231.624ZM281.965 120V59.2447H298.967V120H281.965ZM281.625 51.7636V38.1617H299.194V51.7636H281.625ZM341.539 121.36C337.307 121.36 333.605 120.453 330.431 118.64C327.333 116.826 324.914 114.295 323.176 111.045L322.836 120H306.627V39.5219H323.63V67.8593C325.217 65.0633 327.559 62.7208 330.657 60.8316C333.756 58.8669 337.383 57.8845 341.539 57.8845C346.678 57.8845 351.136 59.2069 354.914 61.8518C358.693 64.421 361.602 68.086 363.642 72.8466C365.758 77.6073 366.816 83.1992 366.816 89.6224C366.816 96.0455 365.758 101.637 363.642 106.398C361.602 111.159 358.693 114.861 354.914 117.506C351.136 120.076 346.678 121.36 341.539 121.36ZM336.778 108.325C340.557 108.325 343.579 106.7 345.846 103.451C348.189 100.126 349.36 95.5165 349.36 89.6224C349.36 83.7282 348.227 79.1564 345.96 75.9071C343.693 72.5822 340.67 70.9197 336.892 70.9197C334.096 70.9197 331.678 71.6754 329.637 73.1867C327.673 74.6225 326.161 76.7383 325.103 79.5343C324.121 82.3302 323.63 85.6929 323.63 89.6224C323.63 93.4762 324.121 96.8012 325.103 99.5971C326.161 102.393 327.673 104.547 329.637 106.058C331.678 107.569 334.058 108.325 336.778 108.325ZM399.01 121.36C392.813 121.36 387.41 120.076 382.801 117.506C378.267 114.861 374.715 111.159 372.146 106.398C369.652 101.637 368.405 96.0455 368.405 89.6224C368.405 83.1992 369.652 77.6451 372.146 72.96C374.715 68.1993 378.267 64.4966 382.801 61.8518C387.335 59.2069 392.7 57.8845 398.896 57.8845C404.942 57.8845 410.194 59.2069 414.652 61.8518C419.11 64.4966 422.549 68.2749 424.967 73.1867C427.461 78.0985 428.707 83.9549 428.707 90.7559V94.1563H385.975C386.201 98.9926 387.486 102.582 389.829 104.925C392.247 107.267 395.42 108.438 399.35 108.438C402.221 108.438 404.602 107.834 406.491 106.625C408.456 105.416 409.854 103.564 410.685 101.071L427.801 102.091C426.214 108.136 422.851 112.859 417.712 116.259C412.574 119.66 406.34 121.36 399.01 121.36ZM385.975 83.7282H411.252C411.025 79.2698 409.778 75.9449 407.511 73.7534C405.32 71.562 402.448 70.4663 398.896 70.4663C395.345 70.4663 392.398 71.6376 390.055 73.9801C387.788 76.2471 386.428 79.4965 385.975 83.7282ZM434.455 120V39.5219H462.225C475.298 39.5219 485.348 43.0357 492.376 50.0634C499.404 57.0155 502.918 66.9525 502.918 79.8743C502.918 92.7206 499.442 102.62 492.489 109.572C485.613 116.524 475.751 120 462.905 120H434.455ZM451.684 105.491H462.225C470.008 105.491 475.751 103.413 479.454 99.2571C483.233 95.0253 485.122 88.5266 485.122 79.761C485.122 70.9953 483.233 64.5344 479.454 60.3782C475.751 56.1465 470.008 54.0306 462.225 54.0306H451.684V105.491ZM537.553 121.36C531.356 121.36 525.953 120.076 521.344 117.506C516.81 114.861 513.258 111.159 510.689 106.398C508.195 101.637 506.949 96.0455 506.949 89.6224C506.949 83.1992 508.195 77.6451 510.689 72.96C513.258 68.1993 516.81 64.4966 521.344 61.8518C525.878 59.2069 531.243 57.8845 537.44 57.8845C543.485 57.8845 548.737 59.2069 553.195 61.8518C557.654 64.4966 561.092 68.2749 563.51 73.1867C566.004 78.0985 567.25 83.9549 567.25 90.7559V94.1563H524.518C524.744 98.9926 526.029 102.582 528.372 104.925C530.79 107.267 533.964 108.438 537.893 108.438C540.764 108.438 543.145 107.834 545.034 106.625C546.999 105.416 548.397 103.564 549.228 101.071L566.344 102.091C564.757 108.136 561.394 112.859 556.256 116.259C551.117 119.66 544.883 121.36 537.553 121.36ZM524.518 83.7282H549.795C549.568 79.2698 548.321 75.9449 546.054 73.7534C543.863 71.562 540.991 70.4663 537.44 70.4663C533.888 70.4663 530.941 71.6376 528.598 73.9801C526.331 76.2471 524.971 79.4965 524.518 83.7282ZM586.993 120L564.776 59.2447H582.572L596.967 102.884L611.25 59.2447H629.045L606.716 120H586.993ZM654.313 120V39.5219H671.542V120H654.313ZM681.078 120V39.5219H708.849C721.922 39.5219 731.972 43.0357 739 50.0634C746.027 57.0155 749.541 66.9525 749.541 79.8743C749.541 92.7206 746.065 102.62 739.113 109.572C732.236 116.524 722.375 120 709.529 120H681.078ZM698.307 105.491H708.849C716.632 105.491 722.375 103.413 726.078 99.2571C729.856 95.0253 731.745 88.5266 731.745 79.761C731.745 70.9953 729.856 64.5344 726.078 60.3782C722.375 56.1465 716.632 54.0306 708.849 54.0306H698.307V105.491Z" fill="white"/>
<path d="M0.837325 0.526367L44.862 0.58136C49.4726 1.52866 53.59 3.49245 56.7477 7.03863C76.3784 41.7216 94.6397 77.2756 113.783 112.271L113.297 117.685C105.844 130.115 99.7931 143.594 92.3353 155.989C90.9499 158.291 90.0575 161.213 86.813 159.464L0.583647 4.41314C9.8398e-06 3.42859 -0.468319 0.955669 0.837325 0.526367Z" fill="white"/>
<path d="M131.648 0.583252C144.417 -1.14637 160.307 1.64054 173.409 0.43956C174.687 0.446656 175.591 1.22188 175.508 2.5364L122.848 99.4894C120.877 101.205 119.534 100.359 118.198 98.4498C111.798 85.64 104.122 73.435 97.6501 60.6748C95.532 56.4971 93.8946 54.3861 95.9311 49.529C101.652 35.8871 112.576 21.706 118.858 8.01798C121.65 4.3015 127.036 1.20769 131.648 0.583252Z" fill="white"/>
</svg>
