<svg viewBox="0 0 24 24" fill="none" xmlns="http://www.w3.org/2000/svg">
  <path d="M21.422 12.157c-.592 1.038-2.066 1.907-4.178 2.489a31.058 31.058 0 01-1.088.268c.267.705.557 1.533.8 2.337.31 1.017.524 2.018.524 2.682 0 .87-.396 1.24-.984 1.24-.62 0-1.137-.452-1.483-1.303-.307-.756-.483-1.748-.571-2.566a48.63 48.63 0 00-.139-1.117 31.25 31.25 0 01-2.303.087c-.85 0-1.658-.034-2.413-.098a48.89 48.89 0 00-.14 1.128c-.088.818-.264 1.81-.571 2.566-.346.85-.862 1.303-1.483 1.303-.588 0-.984-.37-.984-1.24 0-.664.214-1.665.524-2.682.243-.804.533-1.632.8-2.337a31.058 31.058 0 01-1.088-.268c-2.112-.582-3.586-1.451-4.178-2.489C2.174 11.612 2 11.023 2 10.442c0-.842.374-1.578 1.146-2.054.692-.428 1.655-.617 2.788-.617.512 0 1.063.04 1.643.124a26.088 26.088 0 012.252.422l.108.027.117-.031a26.093 26.093 0 012.135-.393c.58-.084 1.13-.124 1.643-.124a5.97 5.97 0 011.857.27c.134-.008.268-.012.401-.012h.02c.133 0 .267.004.401.012a5.97 5.97 0 011.857-.27c.512 0 1.063.04 1.643.124.753.11 1.484.25 2.135.393l.117.031.108-.027a26.088 26.088 0 012.252-.422c.58-.084 1.13-.124 1.643-.124 1.133 0 2.096.189 2.788.617.772.476 1.146 1.212 1.146 2.054 0 .581-.174 1.17-.578 1.715z" fill="#FF6A00"/>
</svg>
